<svg width="400" height="400" viewBox="0 0 400 400" fill="none" xmlns="http://www.w3.org/2000/svg">
<path d="M299.997 257.538L205.381 312.169V311.467C213.496 262.064 251.376 222.685 299.998 212.359L299.997 257.538ZM100.002 212.499C148.43 223.062 186.076 262.476 194.029 311.828L100.004 257.538L100.002 212.499ZM299.998 207.048C279.419 202.677 260.764 193.102 245.475 179.766L300 148.283L299.998 207.048ZM154.136 179.54C138.959 192.854 120.441 202.448 100.002 206.906L100 148.283L154.136 179.54ZM294.619 139.554L237.733 172.394C216.697 150.53 203.764 120.815 203.764 88.0791C203.764 87.7543 203.765 87.4297 203.768 87.1055L294.619 139.554ZM195.589 88.0791C195.589 120.696 182.748 150.312 161.848 172.152L105.381 139.554L195.585 87.4775C195.586 87.6779 195.589 87.8785 195.589 88.0791Z" fill="#FF48D8"/>
<path d="M195.532 203.981L195.534 291.268C189.159 250.213 157.939 217.375 117.725 208.611C135.465 205.363 151.577 197.456 164.747 186.206L195.532 203.981ZM234.903 186.387C248.102 197.598 264.234 205.46 281.986 208.661C241.95 217.482 210.869 250.173 204.429 291.05L204.432 203.981L234.903 186.387ZM199.721 117.464C201.576 141.912 212.177 163.916 228.403 180.354L199.982 196.763L171.227 180.161C187.346 163.744 197.873 141.817 199.721 117.464Z" fill="#FF48D8"/>
</svg>
